<svg width="14" height="9" viewBox="0 0 14 9" fill="none" xmlns="http://www.w3.org/2000/svg">
<mask id="path-1-inside-1_537_1310" fill="white">
<path d="M7.0002 3.00397C7.35044 3.00397 7.69724 3.07295 8.02082 3.20698C8.34439 3.34101 8.6384 3.53746 8.88605 3.78512C9.13371 4.03277 9.33016 4.32678 9.46419 4.65035C9.59822 4.97393 9.6672 5.32073 9.6672 5.67097C9.6672 6.0212 9.59822 6.36801 9.46419 6.69159C9.33016 7.01516 9.13371 7.30917 8.88605 7.55682C8.6384 7.80448 8.34439 8.00093 8.02082 8.13496C7.69724 8.26898 7.35044 8.33797 7.0002 8.33797C6.29287 8.33797 5.61451 8.05698 5.11435 7.55682C4.61419 7.05666 4.3332 6.3783 4.3332 5.67097C4.3332 4.96364 4.61419 4.28527 5.11435 3.78512C5.61451 3.28496 6.29287 3.00397 7.0002 3.00397ZM7.0002 4.00397C6.55808 4.00397 6.13408 4.1796 5.82145 4.49222C5.50883 4.80484 5.3332 5.22885 5.3332 5.67097C5.3332 6.11308 5.50883 6.53709 5.82145 6.84972C6.13408 7.16234 6.55808 7.33797 7.0002 7.33797C7.44232 7.33797 7.86632 7.16234 8.17895 6.84972C8.49157 6.53709 8.6672 6.11308 8.6672 5.67097C8.6672 5.22885 8.49157 4.80484 8.17895 4.49222C7.86632 4.1796 7.44232 4.00397 7.0002 4.00397ZM7.0002 0.667969C10.0762 0.667969 12.7302 2.76797 13.4672 5.71097C13.4848 5.77523 13.4894 5.84237 13.4807 5.90843C13.472 5.9745 13.4502 6.03816 13.4166 6.09568C13.3829 6.15319 13.3381 6.2034 13.2848 6.24336C13.2315 6.28331 13.1707 6.3122 13.106 6.32833C13.0414 6.34446 12.9742 6.34751 12.9083 6.33728C12.8425 6.32706 12.7793 6.30378 12.7226 6.26881C12.6659 6.23384 12.6167 6.18789 12.578 6.13365C12.5393 6.07941 12.5118 6.01798 12.4972 5.95297C12.1878 4.72924 11.4789 3.64375 10.4828 2.86847C9.48669 2.09319 8.26038 1.67245 6.99814 1.67291C5.7359 1.67337 4.5099 2.095 3.51438 2.87101C2.51886 3.64701 1.81074 4.73302 1.5022 5.95697C1.46921 6.08477 1.38703 6.19434 1.27357 6.26179C1.16012 6.32924 1.0246 6.34909 0.896565 6.31702C0.768532 6.28494 0.658374 6.20355 0.590117 6.09058C0.52186 5.9776 0.501041 5.84223 0.5322 5.71397C0.893895 4.27243 1.72676 2.99301 2.89856 2.07883C4.07037 1.16464 5.51397 0.668079 7.0002 0.667969Z"/>
</mask>
<path d="M7.0002 3.00397C7.35044 3.00397 7.69724 3.07295 8.02082 3.20698C8.34439 3.34101 8.6384 3.53746 8.88605 3.78512C9.13371 4.03277 9.33016 4.32678 9.46419 4.65035C9.59822 4.97393 9.6672 5.32073 9.6672 5.67097C9.6672 6.0212 9.59822 6.36801 9.46419 6.69159C9.33016 7.01516 9.13371 7.30917 8.88605 7.55682C8.6384 7.80448 8.34439 8.00093 8.02082 8.13496C7.69724 8.26898 7.35044 8.33797 7.0002 8.33797C6.29287 8.33797 5.61451 8.05698 5.11435 7.55682C4.61419 7.05666 4.3332 6.3783 4.3332 5.67097C4.3332 4.96364 4.61419 4.28527 5.11435 3.78512C5.61451 3.28496 6.29287 3.00397 7.0002 3.00397ZM7.0002 4.00397C6.55808 4.00397 6.13408 4.1796 5.82145 4.49222C5.50883 4.80484 5.3332 5.22885 5.3332 5.67097C5.3332 6.11308 5.50883 6.53709 5.82145 6.84972C6.13408 7.16234 6.55808 7.33797 7.0002 7.33797C7.44232 7.33797 7.86632 7.16234 8.17895 6.84972C8.49157 6.53709 8.6672 6.11308 8.6672 5.67097C8.6672 5.22885 8.49157 4.80484 8.17895 4.49222C7.86632 4.1796 7.44232 4.00397 7.0002 4.00397ZM7.0002 0.667969C10.0762 0.667969 12.7302 2.76797 13.4672 5.71097C13.4848 5.77523 13.4894 5.84237 13.4807 5.90843C13.472 5.9745 13.4502 6.03816 13.4166 6.09568C13.3829 6.15319 13.3381 6.2034 13.2848 6.24336C13.2315 6.28331 13.1707 6.3122 13.106 6.32833C13.0414 6.34446 12.9742 6.34751 12.9083 6.33728C12.8425 6.32706 12.7793 6.30378 12.7226 6.26881C12.6659 6.23384 12.6167 6.18789 12.578 6.13365C12.5393 6.07941 12.5118 6.01798 12.4972 5.95297C12.1878 4.72924 11.4789 3.64375 10.4828 2.86847C9.48669 2.09319 8.26038 1.67245 6.99814 1.67291C5.7359 1.67337 4.5099 2.095 3.51438 2.87101C2.51886 3.64701 1.81074 4.73302 1.5022 5.95697C1.46921 6.08477 1.38703 6.19434 1.27357 6.26179C1.16012 6.32924 1.0246 6.34909 0.896565 6.31702C0.768532 6.28494 0.658374 6.20355 0.590117 6.09058C0.52186 5.9776 0.501041 5.84223 0.5322 5.71397C0.893895 4.27243 1.72676 2.99301 2.89856 2.07883C4.07037 1.16464 5.51397 0.668079 7.0002 0.667969Z" fill="black"/>
<path d="M7.0002 3.00397V6.00397V3.00397ZM7.0002 8.33797V5.33797V8.33797ZM4.3332 5.67097H1.3332H4.3332ZM5.3332 5.67097H2.3332H5.3332ZM7.0002 0.667969V-2.33203H6.99998L7.0002 0.667969ZM13.4672 5.71097L10.5571 6.43974L10.5652 6.47214L10.574 6.50436L13.4672 5.71097ZM12.4972 5.95297L15.424 5.29436L15.4153 5.25583L15.4057 5.21755L12.4972 5.95297ZM1.5022 5.95697L4.40699 6.70675L4.40912 6.69852L4.4112 6.69027L1.5022 5.95697ZM0.5322 5.71397L-2.3776 4.98387L-2.38035 4.9948L-2.38301 5.00575L0.5322 5.71397ZM7.0002 6.00397C6.95647 6.00397 6.91317 5.99536 6.87277 5.97862L9.16887 0.435343C8.48132 0.15055 7.7444 0.00396848 7.0002 0.00396848V6.00397ZM6.87277 5.97862C6.83236 5.96189 6.79566 5.93736 6.76473 5.90644L11.0074 1.66379C10.4811 1.13757 9.85642 0.720137 9.16887 0.435343L6.87277 5.97862ZM6.76473 5.90644C6.73381 5.87551 6.70928 5.8388 6.69255 5.7984L12.2358 3.5023C11.951 2.81475 11.5336 2.19002 11.0074 1.66379L6.76473 5.90644ZM6.69255 5.7984C6.67581 5.758 6.6672 5.7147 6.6672 5.67097H12.6672C12.6672 4.92677 12.5206 4.18985 12.2358 3.5023L6.69255 5.7984ZM6.6672 5.67097C6.6672 5.62724 6.67581 5.58394 6.69255 5.54354L12.2358 7.83964C12.5206 7.15208 12.6672 6.41517 12.6672 5.67097H6.6672ZM6.69255 5.54354C6.70928 5.50314 6.73381 5.46643 6.76473 5.4355L11.0074 9.67814C11.5336 9.15191 11.951 8.52719 12.2358 7.83964L6.69255 5.54354ZM6.76473 5.4355C6.79566 5.40458 6.83237 5.38005 6.87277 5.36332L9.16887 10.9066C9.85642 10.6218 10.4811 10.2044 11.0074 9.67814L6.76473 5.4355ZM6.87277 5.36332C6.91317 5.34658 6.95647 5.33797 7.0002 5.33797V11.338C7.7444 11.338 8.48132 11.1914 9.16887 10.9066L6.87277 5.36332ZM7.0002 5.33797C7.08852 5.33797 7.17322 5.37305 7.23567 5.4355L2.99303 9.67814C4.0558 10.7409 5.49722 11.338 7.0002 11.338V5.33797ZM7.23567 5.4355C7.29812 5.49795 7.3332 5.58265 7.3332 5.67097H1.3332C1.3332 7.17395 1.93026 8.61537 2.99303 9.67814L7.23567 5.4355ZM7.3332 5.67097C7.3332 5.75929 7.29812 5.84399 7.23567 5.90644L2.99303 1.66379C1.93026 2.72656 1.3332 4.16799 1.3332 5.67097H7.3332ZM7.23567 5.90644C7.17322 5.96888 7.08852 6.00397 7.0002 6.00397V0.00396848C5.49722 0.00396854 4.05579 0.601027 2.99303 1.66379L7.23567 5.90644ZM7.0002 1.00397C5.76243 1.00397 4.57537 1.49567 3.70013 2.3709L7.94277 6.61354C7.69279 6.86353 7.35373 7.00397 7.0002 7.00397V1.00397ZM3.70013 2.3709C2.8249 3.24614 2.3332 4.43321 2.3332 5.67097H8.3332C8.3332 6.0245 8.19276 6.36355 7.94277 6.61354L3.70013 2.3709ZM2.3332 5.67097C2.3332 6.90873 2.8249 8.0958 3.70013 8.97104L7.94277 4.7284C8.19276 4.97838 8.3332 5.31744 8.3332 5.67097H2.3332ZM3.70013 8.97104C4.57537 9.84627 5.76244 10.338 7.0002 10.338V4.33797C7.35373 4.33797 7.69279 4.47841 7.94277 4.7284L3.70013 8.97104ZM7.0002 10.338C8.23796 10.338 9.42503 9.84627 10.3003 8.97104L6.05763 4.7284C6.30761 4.47841 6.64667 4.33797 7.0002 4.33797V10.338ZM10.3003 8.97104C11.1755 8.0958 11.6672 6.90873 11.6672 5.67097H5.6672C5.6672 5.31744 5.80764 4.97838 6.05763 4.7284L10.3003 8.97104ZM11.6672 5.67097C11.6672 4.43321 11.1755 3.24614 10.3003 2.3709L6.05763 6.61354C5.80764 6.36355 5.6672 6.0245 5.6672 5.67097H11.6672ZM10.3003 2.3709C9.42504 1.49567 8.23797 1.00397 7.0002 1.00397V7.00397C6.64667 7.00397 6.30761 6.86353 6.05763 6.61354L10.3003 2.3709ZM7.0002 3.66797C8.6916 3.66797 10.1523 4.82347 10.5571 6.43974L16.3773 4.9822C15.3081 0.71247 11.4608 -2.33203 7.0002 -2.33203V3.66797ZM10.574 6.50436C10.4859 6.18306 10.4629 5.84737 10.5064 5.51703L16.4551 6.29984C16.5159 5.83736 16.4837 5.36741 16.3604 4.91758L10.574 6.50436ZM10.5064 5.51703C10.5498 5.18669 10.6589 4.86838 10.8271 4.58082L16.006 7.61054C16.2415 7.20794 16.3942 6.76231 16.4551 6.29984L10.5064 5.51703ZM10.8271 4.58082C10.9954 4.29323 11.2194 4.04219 11.486 3.84242L15.0835 8.64429C15.4568 8.36462 15.7705 8.01315 16.006 7.61054L10.8271 4.58082ZM11.486 3.84242C11.7527 3.64266 12.0566 3.49821 12.3798 3.41755L13.8322 9.23911C14.2848 9.1262 14.7103 8.92396 15.0835 8.64429L11.486 3.84242ZM12.3798 3.41755C12.7031 3.3369 13.0392 3.32168 13.3685 3.37279L12.4482 9.30178C12.9091 9.37333 13.3797 9.35202 13.8322 9.23911L12.3798 3.41755ZM13.3685 3.37279C13.6977 3.42389 14.0134 3.54029 14.297 3.71514L11.1482 8.82249C11.5452 9.06727 11.9872 9.23024 12.4482 9.30178L13.3685 3.37279ZM14.297 3.71514C14.5806 3.88999 14.8264 4.11977 15.0199 4.39096L10.1361 7.87633C10.407 8.256 10.7511 8.57769 11.1482 8.82249L14.297 3.71514ZM15.0199 4.39096C15.2135 4.66215 15.3509 4.9693 15.424 5.29436L9.57039 6.61158C9.67279 7.06666 9.86513 7.49667 10.1361 7.87633L15.0199 4.39096ZM15.4057 5.21755C14.9325 3.34635 13.8485 1.68653 12.3254 0.501045L8.64015 5.2359C9.1092 5.60098 9.44303 6.11214 9.58874 6.68839L15.4057 5.21755ZM12.3254 0.501045C10.8023 -0.684437 8.92714 -1.32779 6.99705 -1.32709L6.99923 4.67291C7.59362 4.6727 8.17109 4.87082 8.64015 5.2359L12.3254 0.501045ZM6.99705 -1.32709C5.06696 -1.32638 3.19229 -0.681668 1.67003 0.504921L5.35873 5.2371C5.82752 4.87168 6.40485 4.67313 6.99923 4.67291L6.99705 -1.32709ZM1.67003 0.504921C0.147774 1.69151 -0.935016 3.35212 -1.4068 5.22367L4.4112 6.69027C4.55649 6.11391 4.88994 5.60252 5.35873 5.2371L1.67003 0.504921ZM-1.40259 5.20719C-1.23765 4.56818 -0.826733 4.02031 -0.259466 3.68307L2.80662 8.84051C3.60079 8.36837 4.17608 7.60137 4.40699 6.70675L-1.40259 5.20719ZM-0.259466 3.68307C0.307804 3.34583 0.985413 3.24657 1.62558 3.40694L0.167546 9.22709C1.06378 9.45161 2.01244 9.31265 2.80662 8.84051L-0.259466 3.68307ZM1.62558 3.40694C2.26574 3.56731 2.81653 3.9743 3.15782 4.53916L-1.97759 7.64199C-1.49978 8.43279 -0.728682 9.00257 0.167546 9.22709L1.62558 3.40694ZM3.15782 4.53916C3.49911 5.10401 3.6032 5.78089 3.44741 6.42219L-2.38301 5.00575C-2.60112 5.90357 -2.45539 6.8512 -1.97759 7.64199L3.15782 4.53916ZM3.442 6.44406C3.64099 5.65099 4.0992 4.94711 4.74388 4.44416L1.05325 -0.286511C-0.645688 1.03891 -1.8532 2.89387 -2.3776 4.98387L3.442 6.44406ZM4.74388 4.44416C5.38856 3.94122 6.18276 3.66803 7.00042 3.66797L6.99998 -2.33203C4.84518 -2.33187 2.75219 -1.61194 1.05325 -0.286511L4.74388 4.44416Z" fill="black" mask="url(#path-1-inside-1_537_1310)"/>
</svg>
