<svg width="14" height="11" viewBox="0 0 14 11" fill="none" xmlns="http://www.w3.org/2000/svg">
<path d="M11.3575 5.7471C12.6778 4.66259 13.5337 3.11447 13.75 1.4196C13.7618 1.32111 13.7541 1.22125 13.7274 1.12574C13.7006 1.03022 13.6553 0.94091 13.594 0.862909C13.5327 0.784908 13.4566 0.719742 13.3702 0.671131C13.2837 0.622521 13.1885 0.591418 13.09 0.579599C12.9915 0.56778 12.8917 0.575477 12.7961 0.602248C12.7006 0.62902 12.6113 0.674343 12.5333 0.73563C12.4553 0.796916 12.3902 0.872967 12.3415 0.959438C12.2929 1.04591 12.2618 1.14111 12.25 1.2396C12.0707 2.50431 11.4409 3.66179 10.4763 4.49923C9.5118 5.33667 8.27737 5.79778 7.00001 5.79778C5.72265 5.79778 4.48822 5.33667 3.52368 4.49923C2.55913 3.66179 1.92931 2.50431 1.75001 1.2396C1.73819 1.14111 1.70709 1.04591 1.65848 0.959438C1.60987 0.872967 1.5447 0.796916 1.4667 0.73563C1.3887 0.674343 1.29939 0.62902 1.20387 0.602248C1.10836 0.575477 1.0085 0.56778 0.91001 0.579599C0.811518 0.591418 0.716319 0.622521 0.629848 0.671131C0.543377 0.719742 0.467327 0.784908 0.40604 0.862909C0.344753 0.94091 0.29943 1.03022 0.272658 1.12574C0.245887 1.22125 0.238191 1.32111 0.25001 1.4196C0.464387 3.11336 1.3175 4.66131 2.63501 5.7471L0.91001 7.4871C0.78714 7.63058 0.722935 7.81513 0.730226 8.00389C0.737517 8.19265 0.815766 8.3717 0.949337 8.50527C1.08291 8.63884 1.26196 8.71709 1.45072 8.72438C1.63948 8.73167 1.82403 8.66747 1.96751 8.5446L3.92501 6.5946C4.65236 6.96216 5.4399 7.19588 6.25001 7.2846V9.9546C6.25001 10.1535 6.32903 10.3443 6.46968 10.4849C6.61033 10.6256 6.8011 10.7046 7.00001 10.7046C7.19892 10.7046 7.38969 10.6256 7.53034 10.4849C7.67099 10.3443 7.75001 10.1535 7.75001 9.9546V7.2846C8.56012 7.19588 9.34766 6.96216 10.075 6.5946L12.0325 8.5446C12.176 8.66747 12.3605 8.73167 12.5493 8.72438C12.7381 8.71709 12.9171 8.63884 13.0507 8.50527C13.1843 8.3717 13.2625 8.19265 13.2698 8.00389C13.2771 7.81513 13.2129 7.63058 13.09 7.4871L11.3575 5.7471Z" fill="black"/>
</svg>
